<?xml version="1.0" encoding="iso-8859-1"?>
<!-- Generator: Adobe Illustrator 19.0.0, SVG Export Plug-In . SVG Version: 6.00 Build 0)  -->
<svg version="1.1" id="Capa_1" xmlns="http://www.w3.org/2000/svg" xmlns:xlink="http://www.w3.org/1999/xlink" x="0px" y="0px"
	 viewBox="0 0 512 512" style="enable-background:new 0 0 512 512;" xml:space="preserve">
<circle style="fill:#FF3200;" cx="256" cy="256" r="256"/>
<path style="fill:#CA1C00;" d="M511.815,265.288L329.121,82.593H182.879v126.344H74.96v185.949l105.896,105.896
	C204.619,508.069,229.85,512,256,512C394.274,512,506.924,402.368,511.815,265.288z"/>
<rect x="290.8" y="208.94" style="fill:#FFFFFF;" width="146.24" height="185.95"/>
<rect x="363.92" y="208.94" style="fill:#FFF5CB;" width="73.12" height="185.95"/>
<rect x="307.7" y="244.11" style="fill:#00A6FF;" width="112.44" height="118.34"/>
<rect x="363.92" y="244.12" style="fill:#006EF5;" width="56.22" height="118.34"/>
<path style="fill:#78777F;" d="M377.566,325.231h-6.408v-7.507c7.628-2.638,13.688-9.333,16.214-17.862
	c2.997-0.002,5.427-2.75,5.427-6.139c0-2.96-1.853-5.431-4.32-6.01c-1.433-13.903-11.878-24.696-24.559-24.696
	s-23.127,10.793-24.559,24.696c-2.466,0.579-4.32,3.05-4.32,6.01c0,3.389,2.43,6.137,5.427,6.139
	c2.525,8.529,8.586,15.224,16.214,17.862v7.507h-6.408c-13.169,0-23.943,10.775-23.943,23.944v13.284h75.179v-13.284
	C401.509,336.005,390.734,325.231,377.566,325.231z"/>
<path style="fill:#3C3B41;" d="M401.509,349.174c0-13.169-10.775-23.944-23.943-23.944h-6.408v-7.507
	c7.628-2.638,13.688-9.333,16.214-17.862c2.997-0.002,5.427-2.75,5.427-6.139c0-2.96-1.853-5.431-4.32-6.01
	c-1.433-13.903-11.878-24.696-24.559-24.696v99.442h37.589V349.174z"/>
<circle style="fill:#78777F;" cx="363.92" cy="226.69" r="10.707"/>
<path style="fill:#3C3B41;" d="M374.627,226.691c0-5.914-4.794-10.708-10.707-10.708v21.415
	C369.833,237.399,374.627,232.605,374.627,226.691z"/>
<rect x="74.96" y="208.94" style="fill:#FFFFFF;" width="146.24" height="185.95"/>
<rect x="148.08" y="208.94" style="fill:#FFF5CB;" width="73.12" height="185.95"/>
<rect x="91.86" y="244.11" style="fill:#00FFEA;" width="112.44" height="118.34"/>
<rect x="148.08" y="244.12" style="fill:#00CEB4;" width="56.22" height="118.34"/>
<path style="fill:#78777F;" d="M161.726,325.231h-6.408v-7.507c7.628-2.638,13.688-9.333,16.214-17.862
	c2.997-0.002,5.427-2.75,5.427-6.139c0-2.96-1.854-5.431-4.32-6.01c-1.433-13.903-11.878-24.696-24.559-24.696
	s-23.127,10.793-24.559,24.696c-2.466,0.579-4.32,3.05-4.32,6.01c0,3.389,2.429,6.137,5.427,6.139
	c2.525,8.529,8.586,15.224,16.214,17.862v7.507h-6.408c-13.169,0-23.944,10.775-23.944,23.944v13.284h75.179v-13.284
	C185.67,336.005,174.895,325.231,161.726,325.231z"/>
<path style="fill:#3C3B41;" d="M185.67,349.174c0-13.169-10.775-23.944-23.943-23.944h-6.408v-7.507
	c7.628-2.638,13.688-9.333,16.214-17.862c2.997-0.002,5.427-2.75,5.427-6.139c0-2.96-1.854-5.431-4.32-6.01
	c-1.433-13.903-11.878-24.696-24.559-24.696v99.442h37.589L185.67,349.174L185.67,349.174z"/>
<circle style="fill:#78777F;" cx="148.08" cy="226.69" r="10.707"/>
<path style="fill:#3C3B41;" d="M158.788,226.691c0-5.914-4.794-10.708-10.708-10.708v21.415
	C153.994,237.399,158.788,232.605,158.788,226.691z"/>
<rect x="182.88" y="82.59" style="fill:#FFFFFF;" width="146.24" height="185.95"/>
<rect x="256" y="82.59" style="fill:#FFF5CB;" width="73.12" height="185.95"/>
<rect x="199.78" y="117.77" style="fill:#FFEC96;" width="112.44" height="118.34"/>
<rect x="256" y="117.77" style="fill:#FDC000;" width="56.22" height="118.34"/>
<path style="fill:#78777F;" d="M269.646,198.886h-6.408v-7.507c7.628-2.638,13.688-9.332,16.214-17.862
	c2.997-0.002,5.427-2.75,5.427-6.139c0-2.96-1.853-5.431-4.32-6.01c-1.433-13.903-11.878-24.696-24.559-24.696
	s-23.127,10.793-24.559,24.696c-2.466,0.579-4.32,3.049-4.32,6.01c0,3.389,2.429,6.137,5.427,6.139
	c2.525,8.529,8.586,15.223,16.214,17.862v7.507h-6.408c-13.169,0-23.943,10.774-23.943,23.943v13.285h75.179V222.83
	C293.589,209.661,282.815,198.886,269.646,198.886z"/>
<path style="fill:#3C3B41;" d="M293.589,222.83c0-13.169-10.775-23.943-23.943-23.943h-6.408v-7.507
	c7.628-2.638,13.688-9.332,16.214-17.862c2.997-0.002,5.427-2.75,5.427-6.139c0-2.96-1.853-5.431-4.32-6.01
	c-1.433-13.903-11.878-24.696-24.559-24.696v99.442h37.589V222.83z"/>
<circle style="fill:#78777F;" cx="256" cy="100.35" r="10.707"/>
<path style="fill:#3C3B41;" d="M266.707,100.347c0-5.914-4.794-10.707-10.707-10.707v21.415
	C261.914,111.054,266.707,106.261,266.707,100.347z"/>
<g>
</g>
<g>
</g>
<g>
</g>
<g>
</g>
<g>
</g>
<g>
</g>
<g>
</g>
<g>
</g>
<g>
</g>
<g>
</g>
<g>
</g>
<g>
</g>
<g>
</g>
<g>
</g>
<g>
</g>
</svg>
